<mxfile host="Electron" modified="2023-11-15T19:59:01.746Z" agent="Mozilla/5.0 (Macintosh; Intel Mac OS X 10_15_7) AppleWebKit/537.36 (KHTML, like Gecko) draw.io/22.0.3 Chrome/114.0.5735.289 Electron/25.8.4 Safari/537.36" etag="VhREKCJBezOyUtc2914g" version="22.0.3" type="device">
  <diagram name="Page-1" id="zaaT4tTwUiH_i6n8_uy2">
    <mxGraphModel dx="527" dy="605" grid="1" gridSize="10" guides="1" tooltips="1" connect="1" arrows="1" fold="1" page="1" pageScale="1" pageWidth="827" pageHeight="1169" math="0" shadow="0">
      <root>
        <mxCell id="0" />
        <mxCell id="1" parent="0" />
        <mxCell id="pU8qDTOc8H2eQXeGD3cO-1" value="" style="ellipse;html=1;shape=startState;fillColor=#000000;strokeColor=#ff0000;" vertex="1" parent="1">
          <mxGeometry x="70" y="30" width="30" height="30" as="geometry" />
        </mxCell>
        <mxCell id="pU8qDTOc8H2eQXeGD3cO-2" value="" style="edgeStyle=orthogonalEdgeStyle;html=1;verticalAlign=bottom;endArrow=open;endSize=8;strokeColor=#ff0000;rounded=0;" edge="1" source="pU8qDTOc8H2eQXeGD3cO-1" parent="1">
          <mxGeometry relative="1" as="geometry">
            <mxPoint x="85" y="120" as="targetPoint" />
          </mxGeometry>
        </mxCell>
        <mxCell id="pU8qDTOc8H2eQXeGD3cO-3" value="inscrire a" style="rounded=1;whiteSpace=wrap;html=1;arcSize=40;fontColor=#000000;fillColor=#ffffc0;strokeColor=#ff0000;" vertex="1" parent="1">
          <mxGeometry x="25" y="120" width="120" height="40" as="geometry" />
        </mxCell>
        <mxCell id="pU8qDTOc8H2eQXeGD3cO-4" value="" style="edgeStyle=orthogonalEdgeStyle;html=1;verticalAlign=bottom;endArrow=open;endSize=8;strokeColor=#ff0000;rounded=0;" edge="1" source="pU8qDTOc8H2eQXeGD3cO-3" parent="1">
          <mxGeometry relative="1" as="geometry">
            <mxPoint x="85" y="220" as="targetPoint" />
          </mxGeometry>
        </mxCell>
        <mxCell id="pU8qDTOc8H2eQXeGD3cO-11" style="edgeStyle=orthogonalEdgeStyle;rounded=0;orthogonalLoop=1;jettySize=auto;html=1;" edge="1" parent="1" source="pU8qDTOc8H2eQXeGD3cO-7">
          <mxGeometry relative="1" as="geometry">
            <mxPoint x="85" y="320" as="targetPoint" />
          </mxGeometry>
        </mxCell>
        <mxCell id="pU8qDTOc8H2eQXeGD3cO-15" value="Oui" style="edgeLabel;html=1;align=center;verticalAlign=middle;resizable=0;points=[];" vertex="1" connectable="0" parent="pU8qDTOc8H2eQXeGD3cO-11">
          <mxGeometry x="-0.1288" relative="1" as="geometry">
            <mxPoint as="offset" />
          </mxGeometry>
        </mxCell>
        <mxCell id="pU8qDTOc8H2eQXeGD3cO-12" style="edgeStyle=orthogonalEdgeStyle;rounded=0;orthogonalLoop=1;jettySize=auto;html=1;" edge="1" parent="1" source="pU8qDTOc8H2eQXeGD3cO-7">
          <mxGeometry relative="1" as="geometry">
            <mxPoint x="170" y="245" as="targetPoint" />
          </mxGeometry>
        </mxCell>
        <mxCell id="pU8qDTOc8H2eQXeGD3cO-16" value="Non" style="edgeLabel;html=1;align=center;verticalAlign=middle;resizable=0;points=[];" vertex="1" connectable="0" parent="pU8qDTOc8H2eQXeGD3cO-12">
          <mxGeometry x="-0.0619" relative="1" as="geometry">
            <mxPoint as="offset" />
          </mxGeometry>
        </mxCell>
        <mxCell id="pU8qDTOc8H2eQXeGD3cO-7" value="a &amp;gt; 0" style="rhombus;whiteSpace=wrap;html=1;fontColor=#000000;fillColor=#ffffc0;strokeColor=#ff0000;" vertex="1" parent="1">
          <mxGeometry x="40" y="220" width="90" height="50" as="geometry" />
        </mxCell>
        <mxCell id="pU8qDTOc8H2eQXeGD3cO-13" value="Ce nombre est positif" style="rounded=1;whiteSpace=wrap;html=1;arcSize=40;fontColor=#000000;fillColor=#ffffc0;strokeColor=#ff0000;" vertex="1" parent="1">
          <mxGeometry x="25" y="320" width="120" height="40" as="geometry" />
        </mxCell>
        <mxCell id="pU8qDTOc8H2eQXeGD3cO-14" value="" style="edgeStyle=orthogonalEdgeStyle;html=1;verticalAlign=bottom;endArrow=open;endSize=8;strokeColor=#ff0000;rounded=0;" edge="1" source="pU8qDTOc8H2eQXeGD3cO-13" parent="1">
          <mxGeometry relative="1" as="geometry">
            <mxPoint x="85" y="420" as="targetPoint" />
          </mxGeometry>
        </mxCell>
        <mxCell id="pU8qDTOc8H2eQXeGD3cO-22" style="edgeStyle=orthogonalEdgeStyle;rounded=0;orthogonalLoop=1;jettySize=auto;html=1;" edge="1" parent="1" source="pU8qDTOc8H2eQXeGD3cO-19">
          <mxGeometry relative="1" as="geometry">
            <mxPoint x="220" y="320" as="targetPoint" />
          </mxGeometry>
        </mxCell>
        <mxCell id="pU8qDTOc8H2eQXeGD3cO-23" value="Oui" style="edgeLabel;html=1;align=center;verticalAlign=middle;resizable=0;points=[];" vertex="1" connectable="0" parent="pU8qDTOc8H2eQXeGD3cO-22">
          <mxGeometry x="-0.0626" relative="1" as="geometry">
            <mxPoint as="offset" />
          </mxGeometry>
        </mxCell>
        <mxCell id="pU8qDTOc8H2eQXeGD3cO-28" style="edgeStyle=orthogonalEdgeStyle;rounded=0;orthogonalLoop=1;jettySize=auto;html=1;" edge="1" parent="1" source="pU8qDTOc8H2eQXeGD3cO-19">
          <mxGeometry relative="1" as="geometry">
            <mxPoint x="320" y="245" as="targetPoint" />
          </mxGeometry>
        </mxCell>
        <mxCell id="pU8qDTOc8H2eQXeGD3cO-19" value="a &amp;lt; 0" style="rhombus;whiteSpace=wrap;html=1;fontColor=#000000;fillColor=#ffffc0;strokeColor=#ff0000;" vertex="1" parent="1">
          <mxGeometry x="170" y="217.5" width="100" height="55" as="geometry" />
        </mxCell>
        <mxCell id="pU8qDTOc8H2eQXeGD3cO-24" value="Ce nombre est nÃ©gatif" style="rounded=1;whiteSpace=wrap;html=1;arcSize=40;fontColor=#000000;fillColor=#ffffc0;strokeColor=#ff0000;" vertex="1" parent="1">
          <mxGeometry x="160" y="320" width="120" height="40" as="geometry" />
        </mxCell>
        <mxCell id="pU8qDTOc8H2eQXeGD3cO-25" value="" style="edgeStyle=orthogonalEdgeStyle;html=1;verticalAlign=bottom;endArrow=open;endSize=8;strokeColor=#ff0000;rounded=0;" edge="1" source="pU8qDTOc8H2eQXeGD3cO-24" parent="1">
          <mxGeometry relative="1" as="geometry">
            <mxPoint x="220" y="420" as="targetPoint" />
          </mxGeometry>
        </mxCell>
        <mxCell id="pU8qDTOc8H2eQXeGD3cO-26" value="" style="ellipse;html=1;shape=endState;fillColor=#000000;strokeColor=#ff0000;" vertex="1" parent="1">
          <mxGeometry x="70" y="420" width="30" height="30" as="geometry" />
        </mxCell>
        <mxCell id="pU8qDTOc8H2eQXeGD3cO-27" value="" style="ellipse;html=1;shape=endState;fillColor=#000000;strokeColor=#ff0000;" vertex="1" parent="1">
          <mxGeometry x="205" y="420" width="30" height="30" as="geometry" />
        </mxCell>
        <mxCell id="pU8qDTOc8H2eQXeGD3cO-29" value="Ce nombre est nul" style="rounded=1;whiteSpace=wrap;html=1;arcSize=40;fontColor=#000000;fillColor=#ffffc0;strokeColor=#ff0000;" vertex="1" parent="1">
          <mxGeometry x="320" y="220" width="120" height="40" as="geometry" />
        </mxCell>
        <mxCell id="pU8qDTOc8H2eQXeGD3cO-30" value="" style="edgeStyle=orthogonalEdgeStyle;html=1;verticalAlign=bottom;endArrow=open;endSize=8;strokeColor=#ff0000;rounded=0;" edge="1" source="pU8qDTOc8H2eQXeGD3cO-29" parent="1">
          <mxGeometry relative="1" as="geometry">
            <mxPoint x="380" y="320" as="targetPoint" />
          </mxGeometry>
        </mxCell>
        <mxCell id="pU8qDTOc8H2eQXeGD3cO-31" value="" style="ellipse;html=1;shape=endState;fillColor=#000000;strokeColor=#ff0000;" vertex="1" parent="1">
          <mxGeometry x="365" y="320" width="30" height="30" as="geometry" />
        </mxCell>
      </root>
    </mxGraphModel>
  </diagram>
</mxfile>
